<?xml version="1.0" encoding="utf-8"?>
<!-- Generator: Adobe Illustrator 21.0.0, SVG Export Plug-In . SVG Version: 6.00 Build 0)  -->
<svg version="1.1" id="图层_1" xmlns="http://www.w3.org/2000/svg" xmlns:xlink="http://www.w3.org/1999/xlink" x="0px" y="0px"
	 viewBox="0 0 40 40" style="enable-background:new 0 0 40 40;" xml:space="preserve">
<style type="text/css">
	.st0{fill:#4B9CF6;}
	.st1{fill:#FFFFFF;}
	.st2{fill:#EACF80;}
	.st3{fill:url(#SVGID_1_);}
</style>
<path class="st0" d="M19.9,0.3C10.4,0.3,2.7,8,2.7,17.5c0,7.6,5,14.1,11.9,16.3c0.8,0.2,1.5,0.6,2.1,1.1l3.2,4.3l3.2-4.3
	c0.5-0.5,1.2-0.9,1.9-1.1C32,31.7,37,25.2,37,17.5C37,8,29.4,0.3,19.9,0.3z"/>
<ellipse class="st0" cx="19.9" cy="18.4" rx="14.1" ry="14.1"/>
<path class="st1" d="M19.9,28.7c-7.6,0-13.8-6.1-14.1-13.6C7,8.4,12.8,3.2,19.9,3.2c7.4,0,13.4,5.6,14.1,12.8
	C33.2,23.1,27.2,28.7,19.9,28.7z"/>
<ellipse class="st1" cx="19.9" cy="17.4" rx="14.2" ry="14.2"/>
<ellipse class="st2" cx="19.9" cy="17.4" rx="14.2" ry="14.2"/>
<ellipse class="st2" cx="19.9" cy="18" rx="14.2" ry="14.2"/>
<g transform="translate(.348 .522)">
	
		<linearGradient id="SVGID_1_" gradientUnits="userSpaceOnUse" x1="-841.8132" y1="27.0794" x2="-841.8132" y2="28.0794" gradientTransform="matrix(28.0617 0 0 26.0678 23642.2715 -703.2201)">
		<stop  offset="0" style="stop-color:#FFF5DF"/>
		<stop  offset="1" style="stop-color:#FFE7C1"/>
	</linearGradient>
	<path class="st3" d="M19.6,28.7c-7.6,0-13.8-6.6-14.1-14.2c1.1-6.7,6.9-11.9,14-11.9c7.4,0,13.4,5.6,14.1,12.8
		C32.9,22.6,26.9,28.7,19.6,28.7z"/>
</g>
<g>
	<path class="st0" d="M24.6,11.9c1,0.3,1.6,0.5,1.6,0.8c-0.1,0.6-0.3,0.9-0.7,0.9c-0.3,0-1.5-0.5-3.5-1.4c-0.8-0.6-1.3-0.9-1.5-0.9
		l-0.2,0.2c0,0.3,0.5,1,1.6,2.3c0.7,1.2,1.3,2.2,2,3c1.6,2.1,2.8,3.8,3.6,5.1c0.4,1.4,0.7,2.1,0.8,2.3v0.2L28,24.5h-0.2
		c-0.4-0.2-0.6-0.4-0.6-0.5c-0.5-0.7-0.9-1.4-1.1-2L22.1,16c-2-2.6-3.1-4.3-3.3-5.2c0.1-0.6,0.5-0.9,1.2-0.9
		C21.1,10.1,22.6,10.8,24.6,11.9z M21,7.3l-0.2,0.2c0,0.2-0.2,0.4-0.5,0.5c-1.2,0.1-2,0.2-2.5,0.4c-0.3-0.2-0.5-0.5-0.7-0.9
		c0.5-0.7,1.1-1,1.7-1h1.5C20.8,6.5,21,6.7,21,7.3z M19.8,14.9l-0.2,2l0.2,1.6c0.8,1.4,1.1,2.2,1.1,2.4v2.3c0,0.5-0.2,0.9-0.7,1.1
		L20,24c-0.2-0.7-0.4-1.3-0.7-1.6l-0.8-0.8c-1-0.7-2.3-1.2-3.7-1.4c-0.2,0.2-0.4,0.3-0.4,0.4c0.3,0.9,0.9,1.5,1.8,1.9
		c0.9,0,1.3,0.2,1.3,0.7l-0.1,0.2h-0.8c-1.1,0-1.9-0.1-2.3-0.3c-0.1-0.5-0.1-0.8-0.2-0.8c-0.7-0.5-1-1.1-1-1.6v-0.3
		c0-0.7,0.5-1.1,1.6-1.2c1.5,0.1,3.1,0.9,4.7,2.4h0.1v-0.1c0-0.9-0.3-1.8-0.9-2.5c0-0.4-0.1-0.7-0.2-0.7c-0.2-1.1-0.3-1.8-0.5-2
		l-1.1,0.2L16,16.3c-1-0.2-1.5-0.5-1.5-1.1v-0.1c0-0.1,0.1-0.2,0.4-0.3c0.5,0.4,1.5,0.6,2.9,0.6h0.7l0.1-0.1c0-0.8,0.2-1.2,0.7-1.3
		C19.6,14.1,19.8,14.4,19.8,14.9z"/>
</g>
</svg>
